<mxfile host="app.diagrams.net" modified="2024-04-15T02:41:15.787Z" agent="Mozilla/5.0 (X11; Linux x86_64) AppleWebKit/537.36 (KHTML, like Gecko) Chrome/121.0.0.0 Safari/537.36" etag="M6KYjMULpJVNUivFj37-" version="24.2.5" type="github">
  <diagram id="C5RBs43oDa-KdzZeNtuy" name="Page-1">
    <mxGraphModel dx="1362" dy="793" grid="1" gridSize="10" guides="1" tooltips="1" connect="1" arrows="1" fold="1" page="1" pageScale="1" pageWidth="827" pageHeight="1169" math="0" shadow="0">
      <root>
        <mxCell id="WIyWlLk6GJQsqaUBKTNV-0" />
        <mxCell id="WIyWlLk6GJQsqaUBKTNV-1" parent="WIyWlLk6GJQsqaUBKTNV-0" />
        <mxCell id="4r0lmq7tKzQQDe8BKLzW-1" value="" style="rounded=0;whiteSpace=wrap;html=1;strokeWidth=4;dashed=1;dashPattern=1 1;" vertex="1" parent="WIyWlLk6GJQsqaUBKTNV-1">
          <mxGeometry x="265" y="23" width="600" height="467" as="geometry" />
        </mxCell>
        <mxCell id="4r0lmq7tKzQQDe8BKLzW-2" value="NER&lt;div&gt;Corpus&lt;/div&gt;" style="shape=cylinder3;whiteSpace=wrap;html=1;boundedLbl=1;backgroundOutline=1;size=15;strokeWidth=3;fontSize=20;fontStyle=1" vertex="1" parent="WIyWlLk6GJQsqaUBKTNV-1">
          <mxGeometry x="75" y="520" width="110" height="120" as="geometry" />
        </mxCell>
        <mxCell id="4r0lmq7tKzQQDe8BKLzW-3" style="edgeStyle=orthogonalEdgeStyle;rounded=0;orthogonalLoop=1;jettySize=auto;html=1;exitX=0.5;exitY=0;exitDx=0;exitDy=0;entryX=0.5;entryY=1;entryDx=0;entryDy=0;strokeWidth=4;" edge="1" parent="WIyWlLk6GJQsqaUBKTNV-1" source="4r0lmq7tKzQQDe8BKLzW-4" target="4r0lmq7tKzQQDe8BKLzW-31">
          <mxGeometry relative="1" as="geometry" />
        </mxCell>
        <mxCell id="4r0lmq7tKzQQDe8BKLzW-4" value="" style="rounded=1;whiteSpace=wrap;html=1;fontSize=12;glass=0;strokeWidth=3;shadow=0;fillColor=#FF9999;strokeColor=#000000;" vertex="1" parent="WIyWlLk6GJQsqaUBKTNV-1">
          <mxGeometry x="457" y="418.5" width="130" height="40" as="geometry" />
        </mxCell>
        <mxCell id="4r0lmq7tKzQQDe8BKLzW-5" value="" style="ellipse;whiteSpace=wrap;html=1;aspect=fixed;strokeWidth=2;fillColor=#660000;strokeColor=#000000;" vertex="1" parent="WIyWlLk6GJQsqaUBKTNV-1">
          <mxGeometry x="467" y="428.5" width="20" height="20" as="geometry" />
        </mxCell>
        <mxCell id="4r0lmq7tKzQQDe8BKLzW-6" value="" style="ellipse;whiteSpace=wrap;html=1;aspect=fixed;strokeWidth=2;fillColor=#660000;strokeColor=#000000;" vertex="1" parent="WIyWlLk6GJQsqaUBKTNV-1">
          <mxGeometry x="497" y="428.5" width="20" height="20" as="geometry" />
        </mxCell>
        <mxCell id="4r0lmq7tKzQQDe8BKLzW-7" value="" style="ellipse;whiteSpace=wrap;html=1;aspect=fixed;strokeWidth=2;fillColor=#660000;strokeColor=#000000;" vertex="1" parent="WIyWlLk6GJQsqaUBKTNV-1">
          <mxGeometry x="527" y="428.5" width="20" height="20" as="geometry" />
        </mxCell>
        <mxCell id="4r0lmq7tKzQQDe8BKLzW-8" value="" style="ellipse;whiteSpace=wrap;html=1;aspect=fixed;strokeWidth=2;fillColor=#660000;strokeColor=#000000;" vertex="1" parent="WIyWlLk6GJQsqaUBKTNV-1">
          <mxGeometry x="557" y="428.5" width="20" height="20" as="geometry" />
        </mxCell>
        <mxCell id="4r0lmq7tKzQQDe8BKLzW-9" value="" style="rounded=1;whiteSpace=wrap;html=1;fontSize=12;glass=0;strokeWidth=3;shadow=0;rotation=90;fillColor=#66FF66;strokeColor=#000000;" vertex="1" parent="WIyWlLk6GJQsqaUBKTNV-1">
          <mxGeometry x="338" y="270.5" width="140" height="40" as="geometry" />
        </mxCell>
        <mxCell id="4r0lmq7tKzQQDe8BKLzW-10" value="" style="ellipse;whiteSpace=wrap;html=1;aspect=fixed;strokeWidth=2;fillColor=#006600;strokeColor=#000000;" vertex="1" parent="WIyWlLk6GJQsqaUBKTNV-1">
          <mxGeometry x="398" y="235.5" width="20" height="20" as="geometry" />
        </mxCell>
        <mxCell id="4r0lmq7tKzQQDe8BKLzW-11" value="" style="ellipse;whiteSpace=wrap;html=1;aspect=fixed;strokeWidth=2;fillColor=#006600;strokeColor=#000000;" vertex="1" parent="WIyWlLk6GJQsqaUBKTNV-1">
          <mxGeometry x="398" y="265.5" width="20" height="20" as="geometry" />
        </mxCell>
        <mxCell id="4r0lmq7tKzQQDe8BKLzW-12" value="" style="ellipse;whiteSpace=wrap;html=1;aspect=fixed;strokeWidth=2;fillColor=#006600;strokeColor=#000000;" vertex="1" parent="WIyWlLk6GJQsqaUBKTNV-1">
          <mxGeometry x="398" y="295.5" width="20" height="20" as="geometry" />
        </mxCell>
        <mxCell id="4r0lmq7tKzQQDe8BKLzW-13" value="" style="ellipse;whiteSpace=wrap;html=1;aspect=fixed;strokeWidth=2;fillColor=#006600;strokeColor=#000000;" vertex="1" parent="WIyWlLk6GJQsqaUBKTNV-1">
          <mxGeometry x="398" y="325.5" width="20" height="20" as="geometry" />
        </mxCell>
        <mxCell id="4r0lmq7tKzQQDe8BKLzW-14" value="h&lt;sup&gt;(t-1)&lt;/sup&gt;" style="text;html=1;align=center;verticalAlign=middle;whiteSpace=wrap;rounded=0;fontSize=23;strokeWidth=4;" vertex="1" parent="WIyWlLk6GJQsqaUBKTNV-1">
          <mxGeometry x="275" y="270.5" width="60" height="30" as="geometry" />
        </mxCell>
        <mxCell id="4r0lmq7tKzQQDe8BKLzW-15" value="W&lt;sub&gt;x&lt;/sub&gt;" style="text;html=1;align=center;verticalAlign=middle;whiteSpace=wrap;rounded=0;fontSize=28;fontStyle=2" vertex="1" parent="WIyWlLk6GJQsqaUBKTNV-1">
          <mxGeometry x="387" y="423.5" width="60" height="30" as="geometry" />
        </mxCell>
        <mxCell id="4r0lmq7tKzQQDe8BKLzW-16" value="W&lt;sub&gt;h&lt;/sub&gt;" style="text;html=1;align=center;verticalAlign=middle;whiteSpace=wrap;rounded=0;fontSize=28;fontStyle=2" vertex="1" parent="WIyWlLk6GJQsqaUBKTNV-1">
          <mxGeometry x="379.5" y="365.5" width="60" height="30" as="geometry" />
        </mxCell>
        <mxCell id="4r0lmq7tKzQQDe8BKLzW-17" style="edgeStyle=orthogonalEdgeStyle;rounded=0;orthogonalLoop=1;jettySize=auto;html=1;entryX=0.5;entryY=1;entryDx=0;entryDy=0;strokeWidth=4;" edge="1" parent="WIyWlLk6GJQsqaUBKTNV-1" source="4r0lmq7tKzQQDe8BKLzW-18">
          <mxGeometry relative="1" as="geometry">
            <mxPoint x="522.5" y="458.5" as="targetPoint" />
          </mxGeometry>
        </mxCell>
        <mxCell id="4r0lmq7tKzQQDe8BKLzW-18" value="" style="rounded=1;whiteSpace=wrap;html=1;fontSize=12;glass=0;strokeWidth=3;shadow=0;fillColor=#FFE599;strokeColor=#000000;" vertex="1" parent="WIyWlLk6GJQsqaUBKTNV-1">
          <mxGeometry x="441" y="507.5" width="163" height="40" as="geometry" />
        </mxCell>
        <mxCell id="4r0lmq7tKzQQDe8BKLzW-19" value="" style="ellipse;whiteSpace=wrap;html=1;aspect=fixed;strokeWidth=2;fillColor=#CCCC00;strokeColor=#000000;" vertex="1" parent="WIyWlLk6GJQsqaUBKTNV-1">
          <mxGeometry x="482.5" y="517.5" width="20" height="20" as="geometry" />
        </mxCell>
        <mxCell id="4r0lmq7tKzQQDe8BKLzW-20" value="" style="ellipse;whiteSpace=wrap;html=1;aspect=fixed;strokeWidth=2;fillColor=#CCCC00;strokeColor=#000000;" vertex="1" parent="WIyWlLk6GJQsqaUBKTNV-1">
          <mxGeometry x="512.5" y="517.5" width="20" height="20" as="geometry" />
        </mxCell>
        <mxCell id="4r0lmq7tKzQQDe8BKLzW-21" value="" style="ellipse;whiteSpace=wrap;html=1;aspect=fixed;strokeWidth=2;fillColor=#CCCC00;strokeColor=#000000;" vertex="1" parent="WIyWlLk6GJQsqaUBKTNV-1">
          <mxGeometry x="541.5" y="517.5" width="20" height="20" as="geometry" />
        </mxCell>
        <mxCell id="4r0lmq7tKzQQDe8BKLzW-22" value="W&lt;sub&gt;e&lt;/sub&gt;" style="text;html=1;align=center;verticalAlign=middle;whiteSpace=wrap;rounded=0;fontSize=28;fontStyle=2" vertex="1" parent="WIyWlLk6GJQsqaUBKTNV-1">
          <mxGeometry x="381" y="512.5" width="60" height="30" as="geometry" />
        </mxCell>
        <mxCell id="4r0lmq7tKzQQDe8BKLzW-23" style="edgeStyle=orthogonalEdgeStyle;rounded=0;orthogonalLoop=1;jettySize=auto;html=1;strokeWidth=4;entryX=0.5;entryY=1;entryDx=0;entryDy=0;" edge="1" parent="WIyWlLk6GJQsqaUBKTNV-1" target="4r0lmq7tKzQQDe8BKLzW-36">
          <mxGeometry relative="1" as="geometry">
            <mxPoint x="743" y="132.25" as="targetPoint" />
            <mxPoint x="743" y="187.25" as="sourcePoint" />
          </mxGeometry>
        </mxCell>
        <mxCell id="4r0lmq7tKzQQDe8BKLzW-24" value="" style="rounded=1;whiteSpace=wrap;html=1;fontSize=12;glass=0;strokeWidth=3;shadow=0;fillColor=#FFCCFF;strokeColor=#000000;" vertex="1" parent="WIyWlLk6GJQsqaUBKTNV-1">
          <mxGeometry x="645" y="187.25" width="195" height="40" as="geometry" />
        </mxCell>
        <mxCell id="4r0lmq7tKzQQDe8BKLzW-25" value="" style="ellipse;whiteSpace=wrap;html=1;aspect=fixed;strokeWidth=2;fillColor=#FF0080;strokeColor=#000000;" vertex="1" parent="WIyWlLk6GJQsqaUBKTNV-1">
          <mxGeometry x="656" y="197.25" width="20" height="20" as="geometry" />
        </mxCell>
        <mxCell id="4r0lmq7tKzQQDe8BKLzW-26" value="" style="ellipse;whiteSpace=wrap;html=1;aspect=fixed;strokeWidth=2;fillColor=#FF0080;strokeColor=#000000;" vertex="1" parent="WIyWlLk6GJQsqaUBKTNV-1">
          <mxGeometry x="686" y="197.25" width="20" height="20" as="geometry" />
        </mxCell>
        <mxCell id="4r0lmq7tKzQQDe8BKLzW-27" value="" style="ellipse;whiteSpace=wrap;html=1;aspect=fixed;strokeWidth=2;fillColor=#FF0080;strokeColor=#000000;" vertex="1" parent="WIyWlLk6GJQsqaUBKTNV-1">
          <mxGeometry x="716" y="197.25" width="20" height="20" as="geometry" />
        </mxCell>
        <mxCell id="4r0lmq7tKzQQDe8BKLzW-28" value="W&lt;sub&gt;y&lt;/sub&gt;" style="text;html=1;align=center;verticalAlign=middle;whiteSpace=wrap;rounded=0;fontSize=28;fontStyle=2" vertex="1" parent="WIyWlLk6GJQsqaUBKTNV-1">
          <mxGeometry x="577" y="192.25" width="60" height="30" as="geometry" />
        </mxCell>
        <mxCell id="4r0lmq7tKzQQDe8BKLzW-29" value="" style="ellipse;whiteSpace=wrap;html=1;aspect=fixed;strokeWidth=2;fillColor=#FF0080;strokeColor=#000000;" vertex="1" parent="WIyWlLk6GJQsqaUBKTNV-1">
          <mxGeometry x="748" y="197.25" width="20" height="20" as="geometry" />
        </mxCell>
        <mxCell id="4r0lmq7tKzQQDe8BKLzW-30" style="edgeStyle=orthogonalEdgeStyle;rounded=0;orthogonalLoop=1;jettySize=auto;html=1;exitX=1;exitY=0.5;exitDx=0;exitDy=0;entryX=0;entryY=0.5;entryDx=0;entryDy=0;strokeWidth=4;" edge="1" parent="WIyWlLk6GJQsqaUBKTNV-1" source="4r0lmq7tKzQQDe8BKLzW-31" target="4r0lmq7tKzQQDe8BKLzW-33">
          <mxGeometry relative="1" as="geometry" />
        </mxCell>
        <mxCell id="4r0lmq7tKzQQDe8BKLzW-31" value="+" style="ellipse;whiteSpace=wrap;html=1;aspect=fixed;fontSize=32;strokeWidth=4;" vertex="1" parent="WIyWlLk6GJQsqaUBKTNV-1">
          <mxGeometry x="497" y="265.5" width="50" height="50" as="geometry" />
        </mxCell>
        <mxCell id="4r0lmq7tKzQQDe8BKLzW-32" style="edgeStyle=orthogonalEdgeStyle;rounded=0;orthogonalLoop=1;jettySize=auto;html=1;entryX=0.5;entryY=1;entryDx=0;entryDy=0;strokeWidth=4;" edge="1" parent="WIyWlLk6GJQsqaUBKTNV-1" source="4r0lmq7tKzQQDe8BKLzW-33" target="4r0lmq7tKzQQDe8BKLzW-24">
          <mxGeometry relative="1" as="geometry">
            <Array as="points">
              <mxPoint x="743" y="288.5" />
            </Array>
          </mxGeometry>
        </mxCell>
        <mxCell id="4r0lmq7tKzQQDe8BKLzW-33" value="" style="ellipse;whiteSpace=wrap;html=1;aspect=fixed;fontSize=32;strokeWidth=4;" vertex="1" parent="WIyWlLk6GJQsqaUBKTNV-1">
          <mxGeometry x="604" y="265.5" width="50" height="50" as="geometry" />
        </mxCell>
        <mxCell id="4r0lmq7tKzQQDe8BKLzW-34" value="y&lt;sup&gt;(t)&lt;/sup&gt;" style="text;html=1;align=center;verticalAlign=middle;whiteSpace=wrap;rounded=0;fontSize=23;strokeWidth=4;" vertex="1" parent="WIyWlLk6GJQsqaUBKTNV-1">
          <mxGeometry x="712.5" y="23" width="60" height="30" as="geometry" />
        </mxCell>
        <mxCell id="4r0lmq7tKzQQDe8BKLzW-35" style="edgeStyle=orthogonalEdgeStyle;rounded=0;orthogonalLoop=1;jettySize=auto;html=1;exitX=0.5;exitY=0;exitDx=0;exitDy=0;entryX=0.5;entryY=1;entryDx=0;entryDy=0;strokeWidth=4;" edge="1" parent="WIyWlLk6GJQsqaUBKTNV-1" source="4r0lmq7tKzQQDe8BKLzW-36" target="4r0lmq7tKzQQDe8BKLzW-34">
          <mxGeometry relative="1" as="geometry">
            <mxPoint x="742.75" y="-19.25" as="targetPoint" />
          </mxGeometry>
        </mxCell>
        <mxCell id="4r0lmq7tKzQQDe8BKLzW-36" value="softmax" style="shape=process;whiteSpace=wrap;html=1;backgroundOutline=1;fontSize=24;strokeWidth=2;fillColor=#e51400;strokeColor=#B20000;fontColor=#ffffff;" vertex="1" parent="WIyWlLk6GJQsqaUBKTNV-1">
          <mxGeometry x="682.5" y="103" width="120" height="29" as="geometry" />
        </mxCell>
        <mxCell id="4r0lmq7tKzQQDe8BKLzW-37" value="" style="ellipse;whiteSpace=wrap;html=1;aspect=fixed;strokeWidth=2;fillColor=#CCCC00;strokeColor=#000000;" vertex="1" parent="WIyWlLk6GJQsqaUBKTNV-1">
          <mxGeometry x="451.5" y="517.5" width="20" height="20" as="geometry" />
        </mxCell>
        <mxCell id="4r0lmq7tKzQQDe8BKLzW-38" value="" style="ellipse;whiteSpace=wrap;html=1;aspect=fixed;strokeWidth=2;fillColor=#CCCC00;strokeColor=#000000;" vertex="1" parent="WIyWlLk6GJQsqaUBKTNV-1">
          <mxGeometry x="572.5" y="517.5" width="20" height="20" as="geometry" />
        </mxCell>
        <mxCell id="4r0lmq7tKzQQDe8BKLzW-39" value="" style="ellipse;whiteSpace=wrap;html=1;aspect=fixed;strokeWidth=2;fillColor=#FF0080;strokeColor=#000000;" vertex="1" parent="WIyWlLk6GJQsqaUBKTNV-1">
          <mxGeometry x="780" y="197.25" width="20" height="20" as="geometry" />
        </mxCell>
        <mxCell id="4r0lmq7tKzQQDe8BKLzW-40" value="" style="ellipse;whiteSpace=wrap;html=1;aspect=fixed;strokeWidth=2;fillColor=#FF0080;strokeColor=#000000;" vertex="1" parent="WIyWlLk6GJQsqaUBKTNV-1">
          <mxGeometry x="810" y="197.25" width="20" height="20" as="geometry" />
        </mxCell>
        <mxCell id="4r0lmq7tKzQQDe8BKLzW-41" style="edgeStyle=orthogonalEdgeStyle;rounded=0;orthogonalLoop=1;jettySize=auto;html=1;exitX=0.5;exitY=0;exitDx=0;exitDy=0;entryX=0;entryY=0.5;entryDx=0;entryDy=0;strokeWidth=4;" edge="1" parent="WIyWlLk6GJQsqaUBKTNV-1" target="4r0lmq7tKzQQDe8BKLzW-31">
          <mxGeometry relative="1" as="geometry">
            <Array as="points" />
            <mxPoint x="428" y="290.5" as="sourcePoint" />
            <mxPoint x="491" y="290.5" as="targetPoint" />
          </mxGeometry>
        </mxCell>
        <mxCell id="4r0lmq7tKzQQDe8BKLzW-42" style="edgeStyle=orthogonalEdgeStyle;rounded=0;orthogonalLoop=1;jettySize=auto;html=1;exitX=1;exitY=1;exitDx=0;exitDy=0;entryX=0.5;entryY=1;entryDx=0;entryDy=0;strokeWidth=4;" edge="1" parent="WIyWlLk6GJQsqaUBKTNV-1" target="4r0lmq7tKzQQDe8BKLzW-9">
          <mxGeometry relative="1" as="geometry">
            <Array as="points">
              <mxPoint x="348" y="290.5" />
              <mxPoint x="348" y="290.5" />
            </Array>
            <mxPoint x="325" y="290.5" as="sourcePoint" />
          </mxGeometry>
        </mxCell>
        <mxCell id="4r0lmq7tKzQQDe8BKLzW-43" value="h&lt;sup&gt;(t)&lt;/sup&gt;" style="text;html=1;align=center;verticalAlign=middle;whiteSpace=wrap;rounded=0;fontSize=23;strokeWidth=4;" vertex="1" parent="WIyWlLk6GJQsqaUBKTNV-1">
          <mxGeometry x="792" y="273.5" width="60" height="30" as="geometry" />
        </mxCell>
        <mxCell id="4r0lmq7tKzQQDe8BKLzW-44" value="" style="endArrow=classic;html=1;rounded=0;entryX=0;entryY=0.5;entryDx=0;entryDy=0;strokeWidth=4;" edge="1" parent="WIyWlLk6GJQsqaUBKTNV-1" target="4r0lmq7tKzQQDe8BKLzW-43">
          <mxGeometry width="50" height="50" relative="1" as="geometry">
            <mxPoint x="745" y="288.5" as="sourcePoint" />
            <mxPoint x="435" y="178.5" as="targetPoint" />
          </mxGeometry>
        </mxCell>
        <mxCell id="4r0lmq7tKzQQDe8BKLzW-45" style="edgeStyle=orthogonalEdgeStyle;rounded=0;orthogonalLoop=1;jettySize=auto;html=1;exitX=1;exitY=0.5;exitDx=0;exitDy=0;exitPerimeter=0;strokeWidth=4;" edge="1" parent="WIyWlLk6GJQsqaUBKTNV-1" source="4r0lmq7tKzQQDe8BKLzW-2">
          <mxGeometry relative="1" as="geometry">
            <mxPoint x="522" y="550" as="targetPoint" />
            <Array as="points">
              <mxPoint x="225" y="580" />
              <mxPoint x="225" y="640" />
              <mxPoint x="522" y="640" />
            </Array>
          </mxGeometry>
        </mxCell>
        <mxCell id="4r0lmq7tKzQQDe8BKLzW-46" value="Tarefa de Reconhecimento de Entidades Nomeadas" style="text;html=1;align=center;verticalAlign=middle;whiteSpace=wrap;rounded=0;fontSize=20;fontStyle=1" vertex="1" parent="WIyWlLk6GJQsqaUBKTNV-1">
          <mxGeometry x="10" y="205.5" width="240" height="30" as="geometry" />
        </mxCell>
        <mxCell id="4r0lmq7tKzQQDe8BKLzW-47" value="Não congelar os pesos!!!" style="text;html=1;align=center;verticalAlign=middle;whiteSpace=wrap;rounded=0;fontStyle=1;fontSize=23;" vertex="1" parent="WIyWlLk6GJQsqaUBKTNV-1">
          <mxGeometry x="626" y="517.5" width="174" height="30" as="geometry" />
        </mxCell>
      </root>
    </mxGraphModel>
  </diagram>
</mxfile>
